<svg width="249" height="52" viewBox="0 0 249 52" fill="none" xmlns="http://www.w3.org/2000/svg">
<g clip-path="url(#clip0_4905_12469)">
<path d="M36.9316 32.5038L23.6906 45.6162C21.6834 47.6044 18.444 47.589 16.4559 45.5809L15.0625 44.1739C15.2237 44.1929 15.3866 44.2029 15.5496 44.2029C16.5935 44.2029 17.6374 43.8082 18.4359 43.0169L34.4002 27.2065C35.3137 26.302 35.7121 25.0708 35.5925 23.8811L36.9669 25.2681C38.9551 27.2762 38.9397 30.5156 36.9316 32.5038Z" fill="#0071FF"/>
<path d="M23.5631 11.735C22.3743 11.6038 21.1385 11.9895 20.225 12.8948L4.25979 28.7052C3.33632 29.6196 2.93977 30.8681 3.07105 32.0686L1.87325 30.859C-0.114929 28.851 -0.0986328 25.6116 1.90856 23.6234L15.1495 10.5101C17.1576 8.52191 20.397 8.53821 22.3852 10.5454L23.5631 11.735Z" fill="#0071FF"/>
<path d="M19.1671 41.019L17.8 42.3734C16.5478 43.6137 14.5198 43.6038 13.2795 42.3517L9.2832 38.3155L12.9925 34.6398L19.1671 41.019Z" fill="#0071FF"/>
<path d="M31.4434 28.8601L19.8095 40.3826L17.1016 37.5841L28.8668 26.1974L31.4434 28.8601Z" fill="#0071FF"/>
<path d="M33.7622 26.5626L32.0864 28.2221L25.9082 21.8393L29.7759 18.006L33.9379 22.2087C35.0207 23.468 34.96 25.3756 33.7622 26.5626Z" fill="#0071FF"/>
<path d="M29.1392 17.3638L25.2787 21.189L19.3359 15.0497L20.8624 13.5378C21.4844 12.9212 22.2983 12.6134 23.1113 12.6134C23.8664 12.6134 24.6215 12.8787 25.2217 13.4083L29.1392 17.3638Z" fill="#0071FF"/>
<path d="M21.4593 18.5439L9.69411 29.9316L7.05859 27.2082L18.6934 15.6857L21.4593 18.5439Z" fill="#0071FF"/>
<path d="M12.3616 33.9888L8.6442 37.6728L4.87697 33.8675C3.63662 32.6154 3.64658 30.5874 4.8987 29.3479L6.41519 27.8459L12.3616 33.9888Z" fill="#0071FF"/>
</g>
<path d="M68.0143 17.7806C67.717 17.4535 67.2858 17.1116 66.7209 16.7548C66.1559 16.3682 65.4868 16.0114 64.7137 15.6843C63.9406 15.3572 63.108 15.0896 62.216 14.8814C61.3239 14.6733 60.4021 14.5692 59.4506 14.5692C57.3691 14.5692 55.8229 14.9558 54.8119 15.7289C53.8009 16.502 53.2954 17.5725 53.2954 18.9403C53.2954 19.9513 53.5779 20.7542 54.1428 21.3489C54.7078 21.9138 55.5701 22.3896 56.7298 22.7762C57.8895 23.1627 59.3465 23.579 61.1009 24.025C63.2418 24.5305 65.1003 25.1401 66.6762 25.8538C68.2522 26.5377 69.4565 27.4595 70.2891 28.6191C71.1217 29.7788 71.538 31.3102 71.538 33.2132C71.538 34.8189 71.2406 36.2016 70.6459 37.3613C70.0512 38.521 69.2186 39.4725 68.1481 40.2159C67.0777 40.9295 65.8437 41.4648 64.4461 41.8216C63.0485 42.1487 61.5469 42.3122 59.9412 42.3122C58.3652 42.3122 56.7893 42.1487 55.2133 41.8216C53.6671 41.4945 52.1803 41.0187 50.753 40.3943C49.3555 39.7401 48.062 38.9521 46.8726 38.0303L49.1473 33.7485C49.5339 34.135 50.084 34.5662 50.7976 35.0419C51.541 35.488 52.3885 35.9191 53.34 36.3354C54.3212 36.7517 55.3768 37.1085 56.5068 37.4059C57.6665 37.6735 58.841 37.8073 60.0304 37.8073C62.0227 37.8073 63.5392 37.4654 64.5799 36.7815C65.6504 36.0678 66.1856 35.0568 66.1856 33.7485C66.1856 32.678 65.8437 31.8305 65.1597 31.2061C64.4758 30.5519 63.4797 30.0018 62.1714 29.5558C60.863 29.1098 59.3019 28.6637 57.4881 28.2177C55.4066 27.6527 53.6671 27.0432 52.2695 26.389C50.872 25.7051 49.8164 24.8428 49.1027 23.802C48.4188 22.7316 48.0768 21.3786 48.0768 19.7432C48.0768 17.6617 48.5823 15.9073 49.5933 14.48C50.6043 13.023 51.9722 11.9377 53.6968 11.224C55.4512 10.4806 57.4137 10.1089 59.5844 10.1089C61.0117 10.1089 62.3646 10.2725 63.6433 10.5996C64.9219 10.8969 66.1113 11.3132 67.2115 11.8484C68.3414 12.3837 69.3673 12.9933 70.2891 13.6772L68.0143 17.7806ZM86.4946 42.446C84.6807 42.446 83.0304 42.1338 81.5436 41.5094C80.0866 40.8552 78.8229 39.978 77.7524 38.8778C76.6819 37.7479 75.8493 36.4692 75.2546 35.0419C74.6897 33.5849 74.4072 32.0387 74.4072 30.4032C74.4072 28.2028 74.9127 26.1957 75.9237 24.3819C76.9347 22.5383 78.3471 21.0664 80.161 19.9662C81.9748 18.8362 84.1009 18.2713 86.5392 18.2713C88.9775 18.2713 91.0738 18.8362 92.8282 19.9662C94.6123 21.0664 95.995 22.5234 96.9762 24.3373C97.9575 26.1511 98.4481 28.0988 98.4481 30.1802C98.4481 30.5371 98.4333 30.879 98.4035 31.2061C98.3738 31.5035 98.3441 31.7562 98.3143 31.9644H79.6257C79.7149 33.3322 80.0866 34.5365 80.7408 35.5772C81.4247 36.5882 82.287 37.391 83.3278 37.9857C84.3685 38.5507 85.4836 38.8332 86.673 38.8332C87.9813 38.8332 89.2153 38.5061 90.375 37.8519C91.5644 37.1978 92.3673 36.3354 92.7836 35.265L96.9762 36.4692C96.4707 37.5992 95.6976 38.625 94.6569 39.5468C93.6459 40.4389 92.4416 41.1525 91.0441 41.6878C89.6465 42.1933 88.13 42.446 86.4946 42.446ZM79.4919 28.7083H93.5864C93.4972 27.3703 93.1107 26.1957 92.4267 25.1847C91.7726 24.144 90.9251 23.3411 89.8844 22.7762C88.8734 22.1814 87.7434 21.8841 86.4946 21.8841C85.2754 21.8841 84.1455 22.1814 83.1047 22.7762C82.0937 23.3411 81.2612 24.144 80.607 25.1847C79.9528 26.1957 79.5811 27.3703 79.4919 28.7083ZM115.563 22.91C113.66 22.9397 111.965 23.3709 110.479 24.2034C109.022 25.036 107.981 26.2106 107.357 27.7271V42H102.45V18.6727H107V23.8912C107.803 22.2855 108.858 21.0069 110.166 20.0554C111.475 19.0741 112.858 18.5389 114.315 18.4497C114.612 18.4497 114.85 18.4497 115.028 18.4497C115.236 18.4497 115.415 18.4645 115.563 18.4943V22.91ZM154.815 42H149.909V28.9314C149.909 26.7607 149.552 25.1698 148.838 24.1588C148.125 23.1478 147.084 22.6423 145.716 22.6423C144.348 22.6423 143.07 23.1627 141.88 24.2034C140.721 25.2144 139.903 26.5377 139.427 28.1731V42H134.521V28.9314C134.521 26.7607 134.164 25.1698 133.45 24.1588C132.737 23.1478 131.711 22.6423 130.373 22.6423C129.005 22.6423 127.726 23.1478 126.537 24.1588C125.377 25.1698 124.545 26.4931 124.039 28.1285V42H119.133V18.6727H123.593V23.356C124.515 21.7206 125.719 20.4717 127.206 19.6093C128.722 18.7173 130.447 18.2713 132.38 18.2713C134.313 18.2713 135.829 18.7768 136.929 19.7878C138.059 20.7988 138.758 22.0625 139.026 23.579C140.037 21.8544 141.271 20.546 142.728 19.654C144.214 18.7322 145.909 18.2713 147.812 18.2713C149.18 18.2713 150.325 18.524 151.247 19.0295C152.169 19.535 152.882 20.2338 153.388 21.1258C153.893 21.9882 154.25 22.9992 154.458 24.1588C154.696 25.2888 154.815 26.4931 154.815 27.7717V42ZM158.774 35.1758C158.774 33.689 159.19 32.3955 160.023 31.2953C160.885 30.1654 162.06 29.303 163.546 28.7083C165.033 28.0839 166.758 27.7717 168.72 27.7717C169.761 27.7717 170.817 27.846 171.887 27.9947C172.987 28.1434 173.954 28.3813 174.786 28.7083V27.2364C174.786 25.601 174.296 24.3224 173.314 23.4006C172.333 22.4788 170.921 22.0179 169.077 22.0179C167.769 22.0179 166.535 22.2558 165.375 22.7316C164.215 23.1776 162.981 23.8169 161.673 24.6495L160.023 21.3489C161.569 20.3081 163.115 19.535 164.661 19.0295C166.237 18.524 167.888 18.2713 169.612 18.2713C172.735 18.2713 175.188 19.1039 176.972 20.769C178.786 22.4045 179.693 24.7387 179.693 27.7717V36.4692C179.693 37.0342 179.782 37.4356 179.96 37.6735C180.168 37.9114 180.51 38.0452 180.986 38.0749V42C180.54 42.0892 180.139 42.1487 179.782 42.1784C179.425 42.2081 179.128 42.223 178.89 42.223C177.849 42.223 177.061 41.9703 176.526 41.4648C175.991 40.9593 175.678 40.3646 175.589 39.6806L175.455 38.3426C174.444 39.6509 173.151 40.6619 171.575 41.3756C169.999 42.0892 168.408 42.446 166.802 42.446C165.256 42.446 163.873 42.1338 162.654 41.5094C161.435 40.8552 160.484 39.978 159.8 38.8778C159.116 37.7776 158.774 36.5436 158.774 35.1758ZM173.627 36.6031C173.983 36.2165 174.266 35.8299 174.474 35.4434C174.682 35.0568 174.786 34.7149 174.786 34.4175V31.7413C173.954 31.4142 173.077 31.1764 172.155 31.0277C171.233 30.8493 170.326 30.7601 169.434 30.7601C167.65 30.7601 166.193 31.1169 165.063 31.8305C163.963 32.5442 163.413 33.5255 163.413 34.7743C163.413 35.4582 163.591 36.1124 163.948 36.7369C164.334 37.3613 164.87 37.8668 165.554 38.2534C166.267 38.6399 167.144 38.8332 168.185 38.8332C169.256 38.8332 170.281 38.625 171.263 38.2088C172.244 37.7925 173.032 37.2572 173.627 36.6031ZM185.69 9.43989H190.596V35.265C190.596 36.4544 190.774 37.2126 191.131 37.5397C191.488 37.8668 191.934 38.0303 192.469 38.0303C193.064 38.0303 193.614 37.9709 194.12 37.8519C194.655 37.733 195.116 37.5843 195.502 37.4059L196.216 41.2864C195.502 41.5837 194.655 41.8365 193.674 42.0446C192.692 42.2527 191.815 42.3568 191.042 42.3568C189.377 42.3568 188.068 41.8959 187.117 40.9741C186.165 40.0226 185.69 38.7143 185.69 37.0491V9.43989ZM198.838 32.9456V18.6727H203.744V31.9644C203.744 34.0458 204.116 35.6218 204.859 36.6923C205.632 37.733 206.747 38.2534 208.204 38.2534C209.126 38.2534 210.018 38.0601 210.881 37.6735C211.773 37.287 212.575 36.722 213.289 35.9786C214.032 35.2055 214.627 34.2837 215.073 33.2132V18.6727H219.98V36.4692C219.98 37.0342 220.084 37.4356 220.292 37.6735C220.5 37.9114 220.842 38.0452 221.318 38.0749V42C220.812 42.0892 220.396 42.1487 220.069 42.1784C219.742 42.2081 219.429 42.223 219.132 42.223C218.24 42.223 217.497 41.9851 216.902 41.5094C216.307 41.0039 215.965 40.3646 215.876 39.5914L215.787 37.2721C214.746 38.967 213.393 40.2605 211.728 41.1525C210.063 42.0149 208.234 42.446 206.242 42.446C203.804 42.446 201.96 41.6432 200.711 40.0375C199.462 38.4318 198.838 36.0678 198.838 32.9456ZM236.812 42.446C234.998 42.446 233.347 42.1338 231.861 41.5094C230.404 40.8552 229.14 39.9631 228.069 38.8332C226.999 37.7033 226.166 36.4098 225.572 34.9527C225.007 33.4957 224.724 31.9495 224.724 30.314C224.724 28.1136 225.215 26.1065 226.196 24.2927C227.207 22.4788 228.605 21.0218 230.389 19.9216C232.203 18.8214 234.343 18.2713 236.812 18.2713C239.19 18.2713 241.257 18.8065 243.011 19.877C244.795 20.9177 246.104 22.3153 246.936 24.0696L242.164 25.5861C241.629 24.6049 240.87 23.8466 239.889 23.3114C238.938 22.7464 237.882 22.4639 236.722 22.4639C235.414 22.4639 234.225 22.8059 233.154 23.4898C232.113 24.144 231.281 25.0658 230.656 26.2552C230.062 27.4149 229.764 28.7678 229.764 30.314C229.764 31.8008 230.076 33.1538 230.701 34.3729C231.325 35.5623 232.158 36.5138 233.199 37.2275C234.269 37.9114 235.459 38.2534 236.767 38.2534C237.57 38.2534 238.343 38.1195 239.086 37.8519C239.859 37.5546 240.528 37.168 241.093 36.6923C241.658 36.1868 242.06 35.6367 242.298 35.0419L247.115 36.4692C246.609 37.6289 245.851 38.6548 244.84 39.5468C243.859 40.4389 242.684 41.1525 241.316 41.6878C239.978 42.1933 238.477 42.446 236.812 42.446Z" fill="#0071FF"/>
<defs>
<clipPath id="clip0_4905_12469">
<rect width="38.0534" height="38.0678" fill="white" transform="translate(0.394531 9.02942)"/>
</clipPath>
</defs>
</svg>
