<svg width="39" height="39" viewBox="0 0 39 39" fill="none" xmlns="http://www.w3.org/2000/svg">
<g id="GU&#195;&#141;A_TV_43_:_95_2_x_53_5cm" clip-path="url(#clip0_4905_12470)">
<path id="Vector" d="M36.9316 23.5038L23.6906 36.6162C21.6834 38.6044 18.444 38.589 16.4559 36.5809L15.0625 35.1739C15.2237 35.1929 15.3866 35.2029 15.5496 35.2029C16.5935 35.2029 17.6374 34.8082 18.4359 34.0169L34.4002 18.2065C35.3137 17.302 35.7121 16.0708 35.5925 14.8811L36.9669 16.2681C38.9551 18.2762 38.9397 21.5156 36.9316 23.5038Z" fill="#0071FF"/>
<path id="Vector_2" d="M23.5631 2.73505C22.3743 2.60377 21.1385 2.98946 20.225 3.89482L4.25979 19.7052C3.33632 20.6196 2.93977 21.8681 3.07105 23.0686L1.87325 21.859C-0.114929 19.851 -0.0986328 16.6116 1.90856 14.6234L15.1495 1.51009C17.1576 -0.478088 20.397 -0.461792 22.3852 1.5454L23.5631 2.73505Z" fill="#0071FF"/>
<g id="Group">
<path id="Vector_3" d="M19.1671 32.019L17.8 33.3734C16.5478 34.6137 14.5198 34.6038 13.2795 33.3517L9.2832 29.3155L12.9925 25.6398L19.1671 32.019Z" fill="#0071FF"/>
<path id="Vector_4" d="M31.4434 19.8601L19.8095 31.3826L17.1016 28.5841L28.8668 17.1974L31.4434 19.8601Z" fill="#0071FF"/>
<path id="Vector_5" d="M33.7622 17.5626L32.0864 19.2221L25.9082 12.8393L29.7759 9.00598L33.9379 13.2087C35.0207 14.468 34.96 16.3756 33.7622 17.5626Z" fill="#0071FF"/>
<path id="Vector_6" d="M29.1392 8.36385L25.2787 12.189L19.3359 6.04974L20.8624 4.53778C21.4844 3.92123 22.2983 3.6134 23.1113 3.6134C23.8664 3.6134 24.6215 3.87867 25.2217 4.40831L29.1392 8.36385Z" fill="#0071FF"/>
<path id="Vector_7" d="M21.4593 9.5439L9.69411 20.9316L7.05859 18.2082L18.6934 6.68567L21.4593 9.5439Z" fill="#0071FF"/>
<path id="Vector_8" d="M12.3616 24.9888L8.6442 28.6728L4.87697 24.8675C3.63662 23.6154 3.64658 21.5874 4.8987 20.3479L6.41519 18.8459L12.3616 24.9888Z" fill="#0071FF"/>
</g>
</g>
<defs>
<clipPath id="clip0_4905_12470">
<rect width="38.0534" height="38.0678" fill="white" transform="translate(0.394531 0.0294189)"/>
</clipPath>
</defs>
</svg>
