<svg width="30" height="31" viewBox="0 0 30 31" fill="none" xmlns="http://www.w3.org/2000/svg">
<path d="M15.0033 7.34549C10.7468 7.34549 7.31344 10.7796 7.31344 15.0371C7.31344 19.2946 10.7468 22.7287 15.0033 22.7287C19.2599 22.7287 22.6933 19.2946 22.6933 15.0371C22.6933 10.7796 19.2599 7.34549 15.0033 7.34549ZM15.0033 20.0377C12.2527 20.0377 10.0039 17.7951 10.0039 15.0371C10.0039 12.2791 12.246 10.0366 15.0033 10.0366C17.7607 10.0366 20.0028 12.2791 20.0028 15.0371C20.0028 17.7951 17.754 20.0377 15.0033 20.0377ZM24.8015 7.03086C24.8015 8.0283 23.9983 8.8249 23.0078 8.8249C22.0106 8.8249 21.2142 8.0216 21.2142 7.03086C21.2142 6.04012 22.0173 5.23682 23.0078 5.23682C23.9983 5.23682 24.8015 6.04012 24.8015 7.03086ZM29.8946 8.85168C29.7808 6.44847 29.232 4.31972 27.4718 2.56584C25.7184 0.811961 23.5901 0.263038 21.1874 0.142543C18.7111 0.00196489 11.2889 0.00196489 8.8126 0.142543C6.41662 0.256344 4.28834 0.805267 2.52817 2.55914C0.767987 4.31302 0.225878 6.44177 0.10541 8.84499C-0.0351366 11.3218 -0.0351366 18.7457 0.10541 21.2225C0.219186 23.6257 0.767987 25.7545 2.52817 27.5084C4.28834 29.2623 6.40993 29.8112 8.8126 29.9317C11.2889 30.0723 18.7111 30.0723 21.1874 29.9317C23.5901 29.8179 25.7184 29.269 27.4718 27.5084C29.2253 25.7545 29.7741 23.6257 29.8946 21.2225C30.0351 18.7457 30.0351 11.3285 29.8946 8.85168ZM26.6955 23.8801C26.1735 25.1922 25.1629 26.203 23.8444 26.7319C21.8701 27.5151 17.1852 27.3343 15.0033 27.3343C12.8215 27.3343 8.12995 27.5084 6.1623 26.7319C4.85053 26.2097 3.83993 25.1989 3.31121 23.8801C2.52817 21.9053 2.70887 17.2194 2.70887 15.0371C2.70887 12.8548 2.53486 8.16218 3.31121 6.19409C3.83324 4.88203 4.84384 3.8712 6.1623 3.34236C8.13664 2.55914 12.8215 2.73989 15.0033 2.73989C17.1852 2.73989 21.8767 2.56584 23.8444 3.34236C25.1562 3.86451 26.1668 4.87533 26.6955 6.19409C27.4785 8.16887 27.2978 12.8548 27.2978 15.0371C27.2978 17.2194 27.4785 21.912 26.6955 23.8801Z" fill="white"/>
</svg>
