<svg width="31" height="31" viewBox="0 0 31 31" fill="none" xmlns="http://www.w3.org/2000/svg">
<path d="M0.51281 10.0061H6.94662V30.0358H0.51281V10.0061ZM3.72498 0.0371115C5.77757 0.0371115 7.4459 1.65444 7.4459 3.6443C7.4459 5.63416 5.77757 7.25542 3.72633 7.25542C2.73894 7.25334 1.79258 6.87226 1.09426 6.19553C0.395943 5.5188 0.00250193 4.60151 0 3.6443C-2.90963e-07 3.17027 0.0963781 2.70088 0.283626 2.26298C0.470873 1.82508 0.745317 1.42725 1.09127 1.09224C1.43722 0.757231 1.84789 0.491609 2.2998 0.310562C2.75171 0.129516 3.236 0.0365944 3.72498 0.0371115ZM10.9639 10.0061H17.123V12.7436H17.2082C18.0661 11.1695 20.1606 9.50893 23.297 9.50893C29.7998 9.50893 31 13.6579 31 19.0503V30.0371H24.5824V20.2938C24.5824 17.972 24.5391 14.9814 21.2458 14.9814C17.9037 14.9814 17.3896 17.513 17.3896 20.1232V30.0319H10.9733V10.0021L10.9639 10.0061Z" fill="white"/>
</svg>
