<svg width="30" height="31" viewBox="0 0 30 31" fill="none" xmlns="http://www.w3.org/2000/svg">
<path d="M28.35 0.0371094H1.65C1.21239 0.0371094 0.792709 0.210948 0.483274 0.520383C0.173839 0.829818 0 1.2495 0 1.68711V28.3871C0 28.8247 0.173839 29.2444 0.483274 29.5538C0.792709 29.8633 1.21239 30.0371 1.65 30.0371H16.02V18.4121H12.12V13.9121H16.02V10.5371C15.9392 9.74475 16.0328 8.9443 16.2941 8.19192C16.5554 7.43953 16.9781 6.75343 17.5327 6.18173C18.0872 5.61002 18.7602 5.16657 19.5042 4.88247C20.2483 4.59836 21.0455 4.48049 21.84 4.53711C23.0075 4.52905 24.1745 4.58915 25.335 4.71711V8.76711H22.95C21.06 8.76711 20.7 9.66711 20.7 10.9721V13.8671H25.2L24.615 18.3671H20.7V30.0371H28.35C28.5667 30.0371 28.7812 29.9944 28.9814 29.9115C29.1816 29.8286 29.3635 29.7071 29.5167 29.5538C29.6699 29.4006 29.7915 29.2187 29.8744 29.0185C29.9573 28.8183 30 28.6038 30 28.3871V1.68711C30 1.47043 29.9573 1.25587 29.8744 1.05568C29.7915 0.855495 29.6699 0.6736 29.5167 0.520383C29.3635 0.367167 29.1816 0.245629 28.9814 0.162708C28.7812 0.079788 28.5667 0.0371094 28.35 0.0371094Z" fill="white"/>
</svg>
